<svg xmlns="http://www.w3.org/2000/svg" version="1.1" xmlns:xlink="http://www.w3.org/1999/xlink" xmlns:svgjs="http://svgjs.com/svgjs" width="1000" height="1000"><g transform="matrix(1,0,0,1,0,0)" style="filter: contrast(1) brightness(0.7)"><svg xmlns="http://www.w3.org/2000/svg" version="1.1" xmlns:xlink="http://www.w3.org/1999/xlink" xmlns:svgjs="http://svgjs.com/svgjs" width="800px" height="800px"><svg width="800px" height="800px" viewBox="0 0 48 48" id="a" xmlns="http://www.w3.org/2000/svg">

<defs>

<style>.b{fill:none;stroke:#000000;stroke-linecap:round;stroke-linejoin:round;}</style>

</defs>

<path class="b" d="M40.5,5.5H7.5c-1.1,0-2,.9-2,2V40.5c0,1.1,.9,2,2,2H40.5c1.1,0,2-.9,2-2V7.5c0-1.1-.9-2-2-2Z"></path>

<g>

<polyline class="b" points="23.6702 15.5455 18.2388 32.352 12.5 15.5455"></polyline>

<path class="b" d="M35.5,22.5141v5.7388c0,2.357-1.9471,4.2016-4.2016,4.2016h0c-1.2297,0-2.357-.4099-2.9719-1.2297"></path>

<path class="b" d="M35.5,15.5455v6.9686c0,2.357-1.9471,4.2016-4.2016,4.2016h0c-2.357,0-4.2016-1.9471-4.2016-4.2016v-6.9686"></path>

</g>

</svg></svg></g></svg>